<svg id="Capa_1" enable-background="new 0 0 512 512" height="512" viewBox="0 0 512 512" width="512" xmlns="http://www.w3.org/2000/svg"><g><g><circle cx="48.338" cy="166.404" fill="#ffde91" r="18.687"/><ellipse cx="463.662" cy="144.112" fill="#ffde91" rx="18.687" ry="18.687" transform="matrix(.995 -.099 .099 .995 -11.944 46.389)"/><g><path d="m408.116 493.419 9-28.524v-35.359c0-69.992-49.49-128.419-115.383-142.214-13.644 7.246-29.207 11.357-45.733 11.357-16.526 0-32.089-4.111-45.733-11.357-65.893 13.794-115.383 72.222-115.383 142.214v35.359l9 28.524 155.613 9z" fill="#adf0ff"/><path d="m128.888 166.665s-28.05-37.79-29.252-92.45c-.067-3.058 2.643-5.438 5.673-5.021 6.266.862 16.729 1.597 26.371-1.003 29.465-7.945 58.456-66.401 109.533-68.104 51.078-1.703 60.983 22.134 60.983 22.134s18.79-11.17 46.848-7.378c41.997 5.675 78.887 69.657 41.394 157.551z" fill="#565e75"/><path d="m114.763 183.919c0 18.953 15.405 30.12 28.96 30.12l14.635-12.763c0-.081 12.766-17.275 12.766-17.357l-12.772-17.372c-4.341-2.387-9.326-3.747-14.63-3.747-13.554-.001-25.032 8.869-28.959 21.119z" fill="#ebbaa1"/><path d="m143.723 205.039c-13.554 0-25.032-8.87-28.959-21.12-.939 2.929-1.451 6.049-1.451 9.29 0 16.795 13.615 30.41 30.41 30.41 5.985 0 11.561-1.736 16.266-4.721l7.973-10.63-9.603-6.992c-4.344 2.392-9.328 3.763-14.636 3.763z" fill="#e8a990"/><path d="m397.237 183.919c0 18.953-15.405 30.12-28.96 30.12l-14.635-12.763c0-.081-12.766-17.275-12.766-17.357l12.772-17.372c4.341-2.387 9.326-3.747 14.63-3.747 13.554-.001 25.032 8.869 28.959 21.119z" fill="#ebbaa1"/><path d="m368.278 205.039c13.554 0 25.033-8.87 28.96-21.12.939 2.929 1.451 6.049 1.451 9.29 0 16.795-13.615 30.41-30.41 30.41-5.985 0-11.561-1.736-16.266-4.721l-7.973-10.63 9.603-6.992c4.342 2.392 9.326 3.763 14.635 3.763z" fill="#e8a990"/><path d="m256 289.099c53.929 0 97.648-37.889 97.648-106.647v-28.036c0-8.548-3.48-16.772-9.762-22.568-18.233-16.82-38.53-45.919-46.683-58.071-1.872-2.79-5.844-3.05-8.113-.572-41.13 44.921-94.407 59.891-118.246 64.548-7.263 1.419-12.49 7.791-12.49 15.191v29.508c-.002 64.885 43.717 106.647 97.646 106.647z" fill="#fdd4bb"/><path d="m176.657 512h158.684l7.742-9.29-7.742-9.291h-158.684l-7.741 9.291z" fill="#8deaf5"/><path d="m209.961 287.16c-.093 1.201-.156 2.41-.156 3.634 0 25.513 20.682 46.195 46.195 46.195s46.195-20.682 46.195-46.195c0-1.224-.062-2.434-.156-3.634z" fill="#ebbaa1"/><path d="m417.116 493.419-37.016 9-37.016-9v-28.524h74.032z" fill="#fdd4bb"/><path d="m94.884 493.419 37.016 9 37.016-9v-28.524h-74.032z" fill="#fdd4bb"/><path d="m350.825 512h61.291c2.761 0 5-2.239 5-5v-13.581h-66.291l-7.742 9.29z" fill="#f7c4a8"/><path d="m99.884 512h61.29l7.742-9.29-7.742-9.29h-66.29v13.58c0 2.761 2.238 5 5 5z" fill="#f7c4a8"/><g><path d="m350.825 493.419v-72.792c0-4.276-3.466-7.742-7.742-7.742s-7.742 3.466-7.742 7.742v72.792l7.742 9.29z" fill="#85e1e5"/><path d="m335.341 493.419h15.484v18.581h-15.484z" fill="#6ed6d6"/><path d="m176.657 493.419v-72.792c0-4.276-3.466-7.742-7.742-7.742s-7.742 3.466-7.742 7.742v72.792l7.742 9.29z" fill="#85e1e5"/><path d="m161.174 493.419h15.484v18.581h-15.484z" fill="#6ed6d6"/></g><path d="m256 280.099c-53.929 0-97.648-43.718-97.648-97.647v18.581c0 53.929 43.718 97.647 97.647 97.647 53.929 0 97.647-43.718 97.647-97.647v-18.581c.001 53.928-43.717 97.647-97.646 97.647z" fill="#f7c4a8"/></g></g><g><path d="m215.834 227.337c-2.684 3.345-2.169 8.257 1.177 10.94 3.343 2.683 8.211 2.173 10.894-1.172 1.043-1.255 3.907-3.803 6.32-3.963.591.353 1.784 1.483 2.595 2.252 3.66 3.467 9.192 8.708 19.183 8.708s15.522-5.241 19.182-8.708c.812-.768 2.004-1.899 2.596-2.252 2.407.16 5.265 2.7 6.312 3.957 2.689 3.306 7.55 3.826 10.88 1.154 3.344-2.683 3.881-7.57 1.197-10.914-.799-.996-8.112-9.733-18.624-9.733-6.164 0-10.139 3.766-13.042 6.516-3.087 2.926-4.869 4.452-8.502 4.452-3.634 0-5.415-1.527-8.503-4.452-2.902-2.75-6.877-6.516-13.041-6.516-10.51 0-17.824 8.736-18.624 9.731z" fill="#f4594e"/><g fill="#565e75"><path d="m193.58 192.291c1.516 1.515 3.504 2.274 5.491 2.274 1.986 0 3.974-.758 5.49-2.274l4.102-4.102 4.102 4.102c1.516 1.515 3.504 2.274 5.491 2.274s3.974-.758 5.491-2.274c3.032-3.033 3.032-7.948 0-10.981l-4.102-4.102 4.102-4.102c3.032-3.033 3.032-7.948 0-10.981-3.033-3.031-7.948-3.031-10.981 0l-4.102 4.102-4.102-4.102c-3.033-3.031-7.948-3.031-10.981 0-3.032 3.033-3.032 7.948 0 10.981l4.102 4.102-4.102 4.102c-3.033 3.033-3.033 7.948-.001 10.981z"/><path d="m288.262 192.291c1.515 1.515 3.503 2.274 5.49 2.274s3.974-.758 5.491-2.275l4.102-4.102 4.102 4.102c1.516 1.516 3.503 2.275 5.491 2.275 1.987 0 3.974-.758 5.49-2.274 3.033-3.032 3.033-7.948.001-10.98l-4.103-4.103 4.103-4.103c3.032-3.032 3.032-7.948-.001-10.98-3.031-3.031-7.947-3.032-10.98.001l-4.102 4.102-4.102-4.102c-3.032-3.032-7.948-3.033-10.98-.001-3.033 3.032-3.033 7.948-.001 10.98l4.103 4.103-4.103 4.103c-3.034 3.032-3.034 7.948-.001 10.98z"/></g></g><g fill="#f4594e"><path d="m136.662 127.556c-.432 0-.871-.036-1.313-.112-78.314-13.376-94.753-33.974-94.753-48.898 0-19.352 25.967-34.676 77.179-45.548 4.181-.889 8.293 1.782 9.181 5.966.887 4.182-1.783 8.293-5.966 9.181-21.107 4.48-38.352 10.033-49.87 16.06-9.418 4.928-15.041 10.289-15.041 14.342 0 6.797 17.112 22.574 81.876 33.636 4.215.72 7.047 4.72 6.328 8.934-.643 3.773-3.917 6.439-7.621 6.439z"/><path d="m377.827 127.125c-3.686 0-6.954-2.643-7.615-6.399-.742-4.212 2.07-8.226 6.28-8.968 62.827-11.071 79.427-26.565 79.427-33.212 0-4.894-8.712-13.574-33.263-21.926-4.047-1.378-6.213-5.775-4.836-9.824 1.379-4.047 5.778-6.212 9.823-4.836 29.036 9.88 43.759 22.189 43.759 36.586 0 14.694-16 35.029-92.224 48.46-.453.081-.906.119-1.351.119z"/></g></g></svg>