<svg id="Capa_1" enable-background="new 0 0 511.999 511.999" height="512" viewBox="0 0 511.999 511.999" width="512" xmlns="http://www.w3.org/2000/svg"><g><path d="m285.997 420.006h-59.994c-8.284 0-15 6.716-15 15v61.993c0 8.284 6.716 15 15 15h59.994c8.284 0 15-6.716 15-15v-61.993c0-8.284-6.716-15-15-15z" fill="#01264c"/><path d="m316 360.006h-120c-8.284 0-15 6.716-15 15v60c0 8.284 6.716 15 15 15h120c8.283 0 15-6.716 15-15v-60c0-8.284-6.717-15-15-15z" fill="#153c66"/><path d="m376.999 120.004h-241.998l120 270.002h226.998c8.284 0 15-6.716 15-15v-135.002c0-66.168-53.832-120-120-120z" fill="#b10042"/><path d="m135.001 120.004c-66.168 0-120 53.832-120 120v135.002c0 8.284 6.716 15 15 15h225v-150.002c0-66.168-53.833-120-120-120z" fill="#ff5c5c"/><path d="m135.001 120.004v270.002h120v-150.002c0-66.168-53.833-120-120-120z" fill="#ef3030"/><path d="m167.426 240.011h-64.854c-8.284 0-15-6.716-15-15s6.716-15 15-15h64.854c8.284 0 15 6.716 15 15s-6.716 15-15 15z" fill="#ef3030"/><path d="m167.426 210.011h-32.426v30h32.426c8.284 0 15-6.716 15-15s-6.716-15-15-15z" fill="#b10042"/><path d="m361 75c-8.284 0-15 6.716-15 15v135.005c0 8.284 6.716 15 15 15 8.283 0 15-6.716 15-15v-135.005c0-8.284-6.717-15-15-15z" fill="#d0c8c3"/><path d="m451 0h-90c-8.284 0-15 6.716-15 15v75h105c8.283 0 15-6.716 15-15v-60c0-8.284-6.717-15-15-15z" fill="#fdbf00"/><circle cx="361" cy="255.005" fill="#e7dfdd" r="45"/></g></svg>