<svg id="Capa_1" enable-background="new 0 0 512 512" height="512" viewBox="0 0 512 512" width="512" xmlns="http://www.w3.org/2000/svg" xmlns:xlink="http://www.w3.org/1999/xlink"><linearGradient id="SVGID_1_" gradientUnits="userSpaceOnUse" x1="256" x2="256" y1="481" y2="31"><stop offset="0" stop-color="#5558ff"/><stop offset="1" stop-color="#00c0ff"/></linearGradient><linearGradient id="SVGID_2_" gradientUnits="userSpaceOnUse" x1="256" x2="256" y1="478.6" y2="241"><stop offset="0" stop-color="#addcff"/><stop offset=".5028" stop-color="#eaf6ff"/><stop offset="1" stop-color="#eaf6ff"/></linearGradient><g><g><g><path d="m306.477 338.095c5.886-5.444 9.523-13.267 9.523-22.095 0-16.816-13.184-30-30-30s-30 13.184-30 30c0 4.5.952 8.735 2.656 12.531l-62.656-12.531-69 161.999c2.401 1.8 5.7 3.001 9 3.001h240c2.999 0 6-.901 8.401-2.401l-38.401-132.599zm114.523-187.095c0-66.167-53.818-120-120-120-31.67 0-61.934 12.788-84.492 35.405-68.262-20.771-137.813 23.086-152.11 88.843-37.294 11.397-64.398 45.908-64.398 85.752 0 49.629 41.371 90 91 90h45c8.291 0 15-6.709 15-15v-45h210v45c0 8.291 6.709 15 15 15h45c49.629 0 91-40.371 91-90s-41.371-90-91-90z" fill="url(#SVGID_1_)"/></g></g><g><g><path d="m376 241h-240c-8.284 0-15 6.716-15 15v210c0 5.099 2.401 9.3 6 11.999l87.904-117.205c5.718-7.624 17.002-8.052 23.282-.885l34.125 38.95c5.871 6.701 16.255 6.838 22.301.293l8.458-9.156c6.588-7.132 18.113-6.221 23.499 1.858l57.831 86.745c3.899-2.7 6.6-7.199 6.6-12.599v-210c0-8.284-6.716-15-15-15zm-90 90c-8.401 0-15-6.601-15-15 0-8.196 6.814-15.006 15.01-15 8.396.005 14.99 6.602 14.99 15 0 8.193-6.807 15-15 15z" fill="url(#SVGID_2_)"/></g></g></g></svg>