<svg id="Capa_1" enable-background="new 0 0 512 512" height="512" viewBox="0 0 512 512" width="512" xmlns="http://www.w3.org/2000/svg" xmlns:xlink="http://www.w3.org/1999/xlink"><linearGradient id="SVGID_1_" gradientUnits="userSpaceOnUse" x1="256" x2="256" y1="435" y2="0"><stop offset="0" stop-color="#c3ffe8"/><stop offset=".9973" stop-color="#f0fff4"/></linearGradient><linearGradient id="SVGID_2_" gradientUnits="userSpaceOnUse" x1="256" x2="256" y1="512" y2="90"><stop offset="0" stop-color="#00b59c"/><stop offset="1" stop-color="#9cffac"/></linearGradient><g id="Mail_34_"><g><g><path d="m506 182.999-241-180c-2.699-2.1-5.7-2.999-9-2.999s-6.301.899-9 2.999l-241 180c-1.8 1.5-3.3 3.3-4.501 5.4l254.501 246.601 254.5-246.601c-1.201-2.1-2.7-3.9-4.5-5.4z" fill="url(#SVGID_1_)"/></g></g><g><g><path d="m510.5 188.399-245.608 180.056c-5.289 3.893-12.495 3.893-17.784 0l-245.608-180.056c-.899 1.8-1.5 4.201-1.5 6.601v302c0 8.284 6.716 15 15 15h482c8.284 0 15-6.716 15-15v-302c0-2.4-.601-4.801-1.5-6.601zm-254.5 111.601c12.012 0 23.789-2.007 35.039-5.991 7.793-2.754 11.895-11.323 9.141-19.131-2.813-7.837-11.338-11.909-19.16-9.141-7.999 2.827-16.436 4.263-25.02 4.263-41.367 0-75-33.647-75-75s33.633-75 75-75 75 33.647 75 75c0 8.276-6.738 15-15 15s-15-6.724-15-15v-30c0-8.291-6.709-15-15-15h-30c-24.814 0-45 20.186-45 45s20.186 45 45 45c11.567 0 22.02-4.508 30-11.704 7.98 7.196 18.433 11.704 30 11.704 24.814 0 45-20.186 45-45 0-57.891-47.109-105-105-105s-105 47.109-105 105 47.109 105 105 105zm15-105c0 8.276-6.738 15-15 15s-15-6.724-15-15 6.738-15 15-15h15z" fill="url(#SVGID_2_)"/></g></g></g></svg>